<?xml version="1.0" encoding="utf-8"?>
<!-- Generator: Adobe Illustrator 16.0.0, SVG Export Plug-In . SVG Version: 6.00 Build 0)  -->
<!DOCTYPE svg PUBLIC "-//W3C//DTD SVG 1.1//EN" "http://www.w3.org/Graphics/SVG/1.1/DTD/svg11.dtd">
<svg version="1.1" xmlns="http://www.w3.org/2000/svg" xmlns:xlink="http://www.w3.org/1999/xlink" x="0px" y="0px" width="360px"
	 height="360px" viewBox="0 0 360 360" enable-background="new 0 0 360 360" xml:space="preserve">
<g id="Calque_2">
</g>
<g id="Calque_1">
	<g>
		<path fill="#FFFFFF" d="M95.709,141.962c0.916,2,2.385,5.287,3.265,7.303l15.928,36.537c0.88,2.017,1.599,5.467,1.599,7.667
			v107.68c0,2.2-1.8,4-4,4h-35c-2.2,0-4-1.8-4-4V97.479c0-2.2,0.75-2.363,1.666-0.363L95.709,141.962z"/>
		<path fill="#FFFFFF" d="M284.849,97.122c0.908-2.003,1.651-1.843,1.651,0.357v203.67c0,2.2-1.8,4-4,4h-35c-2.2,0-4-1.8-4-4
			v-107.13c0-2.2,0.108-4.121,0.24-4.271c0.132-0.148,0.952-1.923,1.822-3.943l15.73-36.532c0.87-2.021,2.325-5.313,3.233-7.317
			L284.849,97.122z"/>
		<path fill="#FFFFFF" d="M158.95,280.229c-0.91-30.82-19.647-78.121-19.647-78.121c-0.81-2.045-2.184-5.372-3.054-7.393
			l-22.268-51.752c-0.87-2.021-1.604-3.71-1.632-3.754h0.006c0.029,0.044,0.037-0.082,0.015-0.28
			c-0.022-0.198,0.671,1.293,1.541,3.314l22.338,51.912c0.87,2.021,2.243,5.348,3.054,7.393
			C139.303,201.547,158.12,249.068,158.95,280.229z"/>
		<path fill="#FFFFFF" d="M74.096,54.938c-0.053-0.115-0.096-0.115-0.096,0s0.043,0.21,0.096,0.21
			C74.147,55.148,74.147,55.054,74.096,54.938z"/>
		<path fill="#FFFFFF" d="M74.096,54.938c-0.053-0.115-0.096-0.115-0.096,0s0.043,0.21,0.096,0.21
			C74.147,55.148,74.147,55.054,74.096,54.938z M139.303,201.547c-0.811-2.045-2.184-5.372-3.054-7.393l-22.338-51.912
			c-0.87-2.021-1.563-3.512-1.541-3.314c0.022,0.198,0.015,0.324-0.015,0.28h-0.006c0.028,0.044,0.762,1.733,1.632,3.754
			l22.268,51.752c0.87,2.021,2.244,5.348,3.054,7.393c0,0,18.737,47.301,19.647,78.121
			C158.12,249.068,139.303,201.547,139.303,201.547z"/>
		<path fill="#FFFFFF" d="M282.66,55.148c2.2,0,3.255,1.639,2.345,3.642l-34.949,76.907c-0.91,2.003-1.671,3.655-1.69,3.671
			l-0.07,0.105c-0.02,0.041-0.746,1.729-1.614,3.75l-22.142,51.54c-0.869,2.021-2.264,5.34-3.102,7.374
			c0,0-3.728,9.061-5.928,14.741c-0.17,0.439-4.359,11.68-5.91,16.55c-0.14,0.42-2.68,9.21-2.75,9.5
			c-0.79,3.069-3.21,16.08-3.26,16.51c-0.18,1.28-0.35,2.59-0.49,3.91c-0.06,0.439-0.33,3.2-0.409,4.16
			c-0.12,1.31-0.36,4.92-0.381,5.399c-0.05,0.87-0.81,17.06-0.81,19.26v8.98c0,2.2-1.8,4-4,4h-35c-2.2,0-4-1.8-4-4
			c0,0,0.429-20.43,0.419-20.92c-0.83-31.16-19.633-78.681-19.633-78.681c-0.81-2.046-2.183-5.373-3.052-7.395
			c0,0-23.853-54.901-23.883-54.945c-0.029-0.044-0.797-1.719-1.707-3.723L75.844,58.791c-0.91-2.003,0.146-3.643,2.347-3.643H112.6
			c2.2,0,4.76,1.631,5.689,3.625l43.392,93.099c0.929,1.994,2.365,5.294,3.19,7.333l14.15,36.61c0.747,2.068,1.971,2.069,2.718,0
			l14.137-36.562c0.827-2.039,2.264-5.338,3.192-7.333l43.383-93.148c0.929-1.994,3.488-3.626,5.688-3.626H282.66z"/>
		<path fill="#FFFFFF" d="M74.096,54.938c0.052,0.115,0.052,0.21,0,0.21c-0.053,0-0.096-0.095-0.096-0.21
			S74.043,54.823,74.096,54.938z"/>
	</g>
</g>
<g id="Calque_3">
</g>
</svg>
